<?xml version="1.0" standalone="no"?>
<!DOCTYPE svg PUBLIC "-//W3C//DTD SVG 20010904//EN"
 "http://www.w3.org/TR/2001/REC-SVG-20010904/DTD/svg10.dtd">
<svg version="1.0" xmlns="http://www.w3.org/2000/svg"
 width="512.000000pt" height="512.000000pt" viewBox="0 0 512.000000 512.000000"
 preserveAspectRatio="xMidYMid meet">
<metadata>
Created by potrace 1.14, written by Peter Selinger 2001-2017
</metadata>
<g transform="translate(0.000000,512.000000) scale(0.100000,-0.100000)"
fill="#000000" stroke="none">
<path d="M2517 4694 c-1 -1 -29 -4 -62 -7 -259 -25 -508 -149 -680 -340 -265
-291 -349 -689 -224 -1061 122 -365 442 -641 824 -710 123 -22 326 -14 447 17
345 90 622 343 742 677 68 188 80 433 31 614 -25 92 -33 113 -74 201 -157 335
-482 564 -851 600 -69 7 -150 12 -153 9z m202 -448 c163 -42 302 -147 391
-296 146 -246 105 -573 -97 -774 -170 -170 -426 -230 -662 -155 -152 48 -315
203 -384 364 -52 123 -59 313 -15 440 47 135 122 237 238 322 147 106 351 145
529 99z"/>
<path d="M1660 2132 c-380 -27 -690 -216 -876 -532 -58 -100 -97 -202 -130
-345 -13 -56 -17 -628 -4 -673 48 -182 305 -207 392 -39 21 40 22 56 24 312 2
333 8 373 65 489 87 176 228 291 421 343 57 16 150 17 1003 18 879 0 945 -1
1013 -18 229 -58 409 -239 467 -470 13 -54 17 -123 19 -349 2 -266 3 -285 23
-323 29 -55 64 -85 123 -105 95 -32 192 3 246 90 l29 45 2 295 c1 162 -3 322
-8 355 -22 138 -86 306 -160 420 -175 267 -467 447 -779 481 -59 6 -1788 12
-1870 6z"/>
</g>
</svg>
